<svg xmlns="http://www.w3.org/2000/svg" fill="none" viewBox="0 0 16 16"><path fill="#000" d="M0 8a8 8 0 1 1 16 0A8 8 0 0 1 0 8Zm7.5-6.923c-.67.204-1.335.82-1.887 1.855A7.97 7.97 0 0 0 5.145 4H7.5V1.077ZM4.09 4a9.267 9.267 0 0 1 .64-1.539 6.7 6.7 0 0 1 .597-.933A7.025 7.025 0 0 0 2.255 4H4.09Zm-.582 3.5c.03-.877.138-1.718.312-2.5H1.674a6.958 6.958 0 0 0-.656 2.5h2.49ZM4.847 5a12.5 12.5 0 0 0-.338 2.5H7.5V5H4.847ZM8.5 5v2.5h2.99a12.495 12.495 0 0 0-.337-2.5H8.5ZM4.51 8.5a12.5 12.5 0 0 0 .337 2.5H7.5V8.5H4.51Zm3.99 0V11h2.653c.187-.765.306-1.608.338-2.5H8.5ZM5.145 12c.138.386.295.744.468 1.068.552 1.035 1.218 1.65 1.887 1.855V12H5.145Zm.182 2.472a6.696 6.696 0 0 1-.597-.933A9.268 9.268 0 0 1 4.09 12H2.255a7.024 7.024 0 0 0 3.072 2.472ZM3.82 11a13.652 13.652 0 0 1-.312-2.5h-2.49c.062.89.291 1.733.656 2.5H3.82Zm6.853 3.472A7.024 7.024 0 0 0 13.745 12h-1.836a9.268 9.268 0 0 1-.64 1.539 6.688 6.688 0 0 1-.597.933ZM8.5 1.077V4h2.355c-.26-.836-.57-1.546-.92-2.075A7.97 7.97 0 0 0 8.5 1.077ZM12.51 4h-1.836a7.97 7.97 0 0 0-.532-1.077 6.707 6.707 0 0 0-.367-.554A7.025 7.025 0 0 1 12.51 4Zm-.437 3.5a13.654 13.654 0 0 0-.312-2.5h-2.69c.175.782.282 1.623.312 2.5h2.69ZM11.36 11c.174-.782.282-1.623.312-2.5h-2.69c-.03.877-.138 1.718-.312 2.5h2.69Zm1.532.472c.364-.767.594-1.61.656-2.5h-2.49a13.807 13.807 0 0 1-.312 2.5h2.147ZM11.055 12c-.26.836-.57 1.546-.92 2.075A7.97 7.97 0 0 0 11.945 12h-.89Zm-2.555 2.923V12H6.145c.26.836.57 1.546.92 2.075a7.97 7.97 0 0 0 1.435.848Z"/></svg>
